<svg width="20" height="20" viewBox="0 0 20 20" fill="none" xmlns="http://www.w3.org/2000/svg">
<path d="M9.6819 8.83639C11.871 8.83639 13.6455 7.06181 13.6455 4.87276C13.6455 2.6837 11.871 0.909119 9.6819 0.909119C7.49284 0.909119 5.71826 2.6837 5.71826 4.87276C5.71826 7.06181 7.49284 8.83639 9.6819 8.83639Z" stroke="#252525" stroke-width="1.6" stroke-miterlimit="10"/>
<path d="M9.67278 19.0909C12.4174 19.0915 15.0844 18.1801 17.2546 16.5C16.4784 15.1803 15.3709 14.0863 14.0419 13.3261C12.7129 12.566 11.2084 12.1661 9.67733 12.1661C8.14629 12.1661 6.64178 12.566 5.31277 13.3261C3.98375 14.0863 2.87634 15.1803 2.1001 16.5C4.26691 18.18 6.93098 19.0915 9.67278 19.0909Z" stroke="#252525" stroke-width="1.6" stroke-miterlimit="10"/>
</svg>
