<svg width="20" height="20" viewBox="0 0 20 20" fill="none" xmlns="http://www.w3.org/2000/svg">
<g clip-path="url(#clip0_10_786)">
<path d="M1.56373 6.99091H18.4365M5.45463 4.96364V0M14.5455 4.96364V0M4.16373 11.1091H6.74554M8.70918 11.1091H11.291M13.2546 11.1091H15.8365M4.16373 14.9455H6.74554M8.70918 14.9455H11.291M13.2546 14.9455H15.8365M3.43645 2.79091H16.5637C17.9595 2.79091 19.091 3.92241 19.091 5.31818V16.5636C19.091 17.9594 17.9595 19.0909 16.5637 19.0909H3.43645C2.04068 19.0909 0.90918 17.9594 0.90918 16.5636V5.31818C0.90918 3.92241 2.04068 2.79091 3.43645 2.79091Z" stroke="#252525" stroke-width="1.6" stroke-miterlimit="10"/>
</g>
<defs>
<clipPath id="clip0_10_786">
<rect width="20" height="20" fill="white"/>
</clipPath>
</defs>
</svg>
