<svg width="20" height="20" viewBox="0 0 20 20" fill="none" xmlns="http://www.w3.org/2000/svg">
<path d="M5.995 1H2.53C1.685 1 1 1.68501 1 2.53V5.99501C1 6.84 1.685 7.52501 2.53 7.52501H5.995C6.84 7.52501 7.52501 6.84 7.52501 5.99501V2.53C7.52501 1.68501 6.84 1 5.995 1Z" stroke="#252525" stroke-width="1.6" stroke-miterlimit="10"/>
<path d="M17.47 1H14.005C13.16 1 12.475 1.68501 12.475 2.53V5.99501C12.475 6.84 13.16 7.52501 14.005 7.52501H17.47C18.315 7.52501 19 6.84 19 5.99501V2.53C19 1.68501 18.315 1 17.47 1Z" stroke="#252525" stroke-width="1.6" stroke-miterlimit="10"/>
<path d="M19 17.47V14.005C19 13.16 18.315 12.475 17.47 12.475H14.005C13.16 12.475 12.475 13.16 12.475 14.005V17.47C12.475 18.315 13.16 19 14.005 19H17.47C18.315 19 19 18.315 19 17.47Z" stroke="#252525" stroke-width="1.6" stroke-miterlimit="10"/>
<path d="M7.52501 17.47V14.005C7.52501 13.16 6.84 12.475 5.995 12.475H2.52999C1.68499 12.475 1.00001 13.16 1.00001 14.005V17.47C1.00001 18.315 1.68499 19 2.52999 19H5.995C6.84 19 7.52501 18.315 7.52501 17.47Z" stroke="#252525" stroke-width="1.6" stroke-miterlimit="10"/>
</svg>
