<svg width="60" height="60" viewBox="0 0 60 60" fill="none" xmlns="http://www.w3.org/2000/svg">
<path d="M4.19264 46.5677V10.9489C4.19177 10.6018 4.26014 10.2581 4.39377 9.93774C4.5274 9.61743 4.72358 9.32701 4.97084 9.08345C5.21437 8.84014 5.50344 8.6472 5.82156 8.51563C6.13967 8.38407 6.48061 8.31646 6.82486 8.31668H52.4077C53.3183 8.31668 54.1915 8.6784 54.8354 9.32227C55.4793 9.96614 55.841 10.8394 55.841 11.75V46.5677" stroke="#252525" stroke-width="1.6" stroke-miterlimit="10"/>
<path d="M50.1191 46.5677V17.8855H9.93799V46.5677" stroke="#252525" stroke-miterlimit="10"/>
<path d="M1.01146 46.5677H59V47.7922C58.995 48.8227 58.5838 49.8097 57.8556 50.5389C57.1264 51.2671 56.1394 51.6783 55.1089 51.6833H4.89111C3.8606 51.6783 2.87362 51.2671 2.14444 50.5389C1.41625 49.8097 1.00502 48.8227 1 47.7922L1.01146 46.5677Z" stroke="#252525" stroke-width="1.6" stroke-miterlimit="10"/>
<path d="M55.8413 14.3505H4.77661" stroke="#252525" stroke-miterlimit="10"/>
<path d="M24.6437 33.7258C24.468 33.5578 24.2345 33.4636 23.9914 33.4625C23.8725 33.4621 23.7547 33.4852 23.6447 33.5303C23.5348 33.5755 23.4348 33.6419 23.3505 33.7258L22.0115 34.9732L20.0774 33.0391C19.9017 32.8711 19.6682 32.7769 19.4251 32.7759C19.3062 32.7755 19.1884 32.7985 19.0785 32.8437C18.9685 32.8888 18.8685 32.9552 18.7842 33.0391L15.2937 36.4724V37.6168C15.2937 37.785 15.327 37.9516 15.3918 38.1068C15.4567 38.262 15.5517 38.4027 15.6713 38.5209C15.7901 38.6431 15.9326 38.7396 16.09 38.8045C16.2475 38.8695 16.4166 38.9015 16.5869 38.8986H25.2045C25.3771 38.9065 25.5493 38.8752 25.7081 38.807C25.8626 38.7332 26.0053 38.6368 26.1315 38.5209C26.2501 38.3927 26.3468 38.2458 26.4176 38.0861C26.4858 37.9273 26.517 37.7551 26.5092 37.5825V35.2707L24.6437 33.7258Z" stroke="#252525" stroke-miterlimit="10"/>
<path d="M23.1786 30.7961C23.4198 30.8003 23.6561 30.7282 23.8539 30.5901C24.0612 30.4606 24.2217 30.2681 24.3117 30.0408C24.4024 29.8158 24.4263 29.5694 24.3803 29.3312C24.3312 29.0919 24.2117 28.8726 24.037 28.7018C23.8655 28.5301 23.6461 28.4144 23.4075 28.3699C23.1694 28.3239 22.923 28.3478 22.698 28.4386C22.4707 28.5286 22.2782 28.689 22.1487 28.8963C22.0124 29.0992 21.9406 29.3386 21.9427 29.583C21.9467 29.9062 22.0783 30.2148 22.3089 30.4413C22.4234 30.5548 22.5592 30.6446 22.7084 30.7054C22.8577 30.7663 23.0175 30.7971 23.1786 30.7961Z" stroke="#252525" stroke-miterlimit="10"/>
<path d="M24.942 25.3715H16.8623C16.6539 25.37 16.4473 25.4097 16.2544 25.4884C16.0614 25.5671 15.886 25.6832 15.7381 25.83C15.5903 25.9768 15.4729 26.1514 15.3928 26.3438C15.3127 26.5361 15.2715 26.7424 15.2715 26.9508V37.3881C15.2715 37.81 15.4391 38.2146 15.7374 38.5129C16.0358 38.8112 16.4404 38.9788 16.8623 38.9788H24.942C25.1503 38.9788 25.3567 38.9376 25.549 38.8575C25.7414 38.7774 25.916 38.6601 26.0628 38.5122C26.2096 38.3643 26.3257 38.1889 26.4044 37.996C26.4831 37.803 26.5228 37.5964 26.5213 37.3881V26.9508C26.5213 26.5319 26.3549 26.1303 26.0587 25.8341C25.7625 25.5379 25.3608 25.3715 24.942 25.3715Z" stroke="#252525" stroke-miterlimit="10"/>
<path d="M30.5952 26.5501H45.3584" stroke="#252525" stroke-miterlimit="10"/>
<path d="M30.5952 30.2925H45.3584" stroke="#252525" stroke-miterlimit="10"/>
<path d="M30.5952 34.0462H45.3584" stroke="#252525" stroke-miterlimit="10"/>
<path d="M30.5952 37.7886H45.3584" stroke="#252525" stroke-miterlimit="10"/>
</svg>
