<svg width="60" height="60" viewBox="0 0 60 60" fill="none" xmlns="http://www.w3.org/2000/svg">
<path d="M29.9926 9.60657C27.5441 9.60657 27.086 11.8596 27.2282 14.1903L27.5915 22.4409C27.7102 22.9826 28.014 23.468 28.4523 23.8162C28.8907 24.1644 29.4371 24.3542 30.0005 24.3542C30.5639 24.3542 31.1103 24.1644 31.5487 23.8162C31.987 23.468 32.2909 22.9826 32.4095 22.4409L32.7729 14.1903C32.9151 11.7353 32.4569 9.60657 29.9926 9.60657Z" stroke="#252525" stroke-miterlimit="10"/>
<path d="M29.9918 32.9133C31.4837 32.9133 32.6931 31.7237 32.6931 30.2563C32.6931 28.7889 31.4837 27.5993 29.9918 27.5993C28.4999 27.5993 27.2905 28.7889 27.2905 30.2563C27.2905 31.7237 28.4999 32.9133 29.9918 32.9133Z" stroke="#252525" stroke-miterlimit="10"/>
<path d="M56.1991 50.3158H54.8248C54.7798 48.6169 54.3374 46.951 53.5319 45.4473C52.7265 43.9437 51.5797 42.6429 50.1805 41.6457C50.5108 41.313 50.6976 40.8676 50.7018 40.4027V40.2007C50.6977 39.7336 50.5061 39.287 50.1688 38.9582C49.8315 38.6293 49.3759 38.4449 48.901 38.4449H48.3639L45.6468 9.80848C45.4857 8.14208 44.6988 6.5946 43.4398 5.46832C42.1808 4.34203 40.5402 3.71783 38.8384 3.71762H21.1932C19.4897 3.71748 17.8471 4.34115 16.5856 5.46713C15.324 6.59312 14.5338 8.14075 14.369 9.80848L11.6361 38.4449H11.099C10.6241 38.4449 10.1684 38.6293 9.83117 38.9582C9.4939 39.287 9.30235 39.7336 9.29818 40.2007V40.4027C9.30243 40.8676 9.48921 41.313 9.81948 41.6457C8.42029 42.6429 7.27347 43.9437 6.46804 45.4473C5.66261 46.951 5.22023 48.6169 5.17519 50.3158H3.80084C3.32596 50.3158 2.87029 50.5003 2.53301 50.8291C2.19574 51.158 2.00417 51.6046 2 52.0716V54.5266C2.00417 54.9937 2.19574 55.4403 2.53301 55.7691C2.87029 56.0979 3.32596 56.2824 3.80084 56.2824H56.1991C56.674 56.2824 57.1297 56.0979 57.467 55.7691C57.8043 55.4403 57.9958 54.9937 58 54.5266V52.0716C57.9958 51.6046 57.8043 51.158 57.467 50.8291C57.1297 50.5003 56.674 50.3158 56.1991 50.3158Z" stroke="#252525" stroke-width="1.6" stroke-miterlimit="10"/>
<path d="M29.9911 9.6066C27.5426 9.6066 27.0845 11.8596 27.2267 14.1903L27.59 22.4409C27.7087 22.9827 28.0125 23.4681 28.4509 23.8162C28.8892 24.1644 29.4356 24.3543 29.9991 24.3543C30.5625 24.3543 31.1089 24.1644 31.5472 23.8162C31.9856 23.4681 32.2894 22.9827 32.4081 22.4409L32.7714 14.1903C32.9136 11.7353 32.4555 9.6066 29.9911 9.6066Z" stroke="#252525" stroke-miterlimit="10"/>
<path d="M29.9913 32.9134C31.4832 32.9134 32.6926 31.7239 32.6926 30.2564C32.6926 28.789 31.4832 27.5995 29.9913 27.5995C28.4994 27.5995 27.29 28.789 27.29 30.2564C27.29 31.7239 28.4994 32.9134 29.9913 32.9134Z" stroke="#252525" stroke-miterlimit="10"/>
<path d="M56.1983 50.6734H3.80005" stroke="#252525" stroke-miterlimit="10"/>
<path d="M48.2996 38.8023H11.0979" stroke="#252525" stroke-miterlimit="10"/>
<path d="M9.31274 42.0343H49.9897" stroke="#252525" stroke-miterlimit="10"/>
</svg>
