<svg width="50" height="50" viewBox="0 0 50 50" fill="none" xmlns="http://www.w3.org/2000/svg">
<path d="M31.9797 0L42.7714 11.3403V47.9592C42.7714 49.0863 41.8511 50 40.7158 50H6.28529C5.15004 50 4.22974 49.0863 4.22974 47.9592V2.04082C4.22974 0.913704 5.15004 0 6.28529 0H31.9797Z" fill="#EBEBEB"/>
<path opacity="0.5" d="M31.9797 0L42.7714 11.3403H34.0353C32.9 11.3403 31.9797 10.4266 31.9797 9.29949V0Z" fill="#808080"/>
<rect x="11.4402" y="21.1875" width="34.33" height="12" rx="2" fill="#6A88F3"/>
<path d="M38.3426 23.6506L39.8093 26.1293H39.8661L41.3398 23.6506H43.0763L40.8568 27.2869L43.126 30.9233H41.3576L39.8661 28.4411H39.8093L38.3178 30.9233H36.5564L38.8327 27.2869L36.599 23.6506H38.3426Z" fill="white"/>
<path d="M35.9545 26.1967H34.3991C34.3707 25.9955 34.3127 25.8168 34.2251 25.6605C34.1375 25.5019 34.0251 25.367 33.8877 25.2557C33.7504 25.1444 33.5918 25.0592 33.4119 25C33.2343 24.9408 33.0414 24.9112 32.8331 24.9112C32.4566 24.9112 32.1287 25.0047 31.8494 25.1918C31.57 25.3764 31.3534 25.6463 31.1995 26.0014C31.0456 26.3542 30.9687 26.7827 30.9687 27.2869C30.9687 27.8054 31.0456 28.241 31.1995 28.5938C31.3558 28.9465 31.5736 29.2128 31.8529 29.3928C32.1323 29.5727 32.4554 29.6627 32.8224 29.6627C33.0284 29.6627 33.2189 29.6354 33.3941 29.581C33.5717 29.5265 33.7291 29.4472 33.8664 29.3431C34.0037 29.2365 34.1174 29.1075 34.2073 28.956C34.2997 28.8045 34.3636 28.6316 34.3991 28.4375L35.9545 28.4446C35.9143 28.7784 35.8136 29.1004 35.6527 29.4105C35.494 29.7183 35.2798 29.9941 35.0099 30.2379C34.7424 30.4794 34.4228 30.6712 34.0511 30.8132C33.6818 30.9529 33.2639 31.0227 32.7975 31.0227C32.1489 31.0227 31.5688 30.876 31.0575 30.5824C30.5485 30.2888 30.146 29.8639 29.8501 29.3075C29.5565 28.7512 29.4098 28.0777 29.4098 27.2869C29.4098 26.4939 29.5589 25.8191 29.8572 25.2628C30.1555 24.7065 30.5603 24.2827 31.0717 23.9915C31.5831 23.6979 32.1583 23.5511 32.7975 23.5511C33.2189 23.5511 33.6096 23.6103 33.9694 23.7287C34.3316 23.8471 34.6524 24.0199 34.9318 24.2472C35.2111 24.4721 35.4384 24.7479 35.6136 25.0746C35.7912 25.4013 35.9048 25.7753 35.9545 26.1967Z" fill="white"/>
<path d="M28.3986 27.2869C28.3986 28.08 28.2482 28.7547 27.9476 29.3111C27.6493 29.8674 27.2421 30.2924 26.726 30.5859C26.2123 30.8771 25.6346 31.0227 24.993 31.0227C24.3467 31.0227 23.7667 30.876 23.253 30.5824C22.7392 30.2888 22.3332 29.8639 22.0349 29.3075C21.7366 28.7512 21.5875 28.0777 21.5875 27.2869C21.5875 26.4939 21.7366 25.8191 22.0349 25.2628C22.3332 24.7065 22.7392 24.2827 23.253 23.9915C23.7667 23.6979 24.3467 23.5511 24.993 23.5511C25.6346 23.5511 26.2123 23.6979 26.726 23.9915C27.2421 24.2827 27.6493 24.7065 27.9476 25.2628C28.2482 25.8191 28.3986 26.4939 28.3986 27.2869ZM26.8396 27.2869C26.8396 26.7732 26.7627 26.34 26.6088 25.9872C26.4573 25.6345 26.243 25.367 25.966 25.1847C25.6891 25.0024 25.3647 24.9112 24.993 24.9112C24.6213 24.9112 24.297 25.0024 24.02 25.1847C23.743 25.367 23.5276 25.6345 23.3737 25.9872C23.2222 26.34 23.1464 26.7732 23.1464 27.2869C23.1464 27.8007 23.2222 28.2339 23.3737 28.5867C23.5276 28.9394 23.743 29.2069 24.02 29.3892C24.297 29.5715 24.6213 29.6627 24.993 29.6627C25.3647 29.6627 25.6891 29.5715 25.966 29.3892C26.243 29.2069 26.4573 28.9394 26.6088 28.5867C26.7627 28.2339 26.8396 27.8007 26.8396 27.2869Z" fill="white"/>
<path d="M17.0181 30.9233H14.4399V23.6506H17.0394C17.7709 23.6506 18.4006 23.7962 18.9286 24.0874C19.4565 24.3762 19.8625 24.7917 20.1466 25.3338C20.4331 25.876 20.5763 26.5246 20.5763 27.2798C20.5763 28.0374 20.4331 28.6885 20.1466 29.233C19.8625 29.7775 19.4541 30.1953 18.9215 30.4865C18.3912 30.7777 17.7567 30.9233 17.0181 30.9233ZM15.9776 29.6058H16.9541C17.4087 29.6058 17.791 29.5253 18.1012 29.3644C18.4137 29.201 18.648 28.9489 18.8043 28.608C18.9629 28.2647 19.0422 27.822 19.0422 27.2798C19.0422 26.7424 18.9629 26.3033 18.8043 25.9624C18.648 25.6215 18.4148 25.3705 18.1047 25.2095C17.7946 25.0485 17.4122 24.9681 16.9577 24.9681H15.9776V29.6058Z" fill="white"/>
</svg>
