<svg width="50" height="50" viewBox="0 0 50 50" fill="none" xmlns="http://www.w3.org/2000/svg">
<path d="M31.9788 0L42.7704 11.3403V47.9592C42.7704 49.0863 41.8501 50 40.7149 50H6.28432C5.14906 50 4.22876 49.0863 4.22876 47.9592V2.04082C4.22876 0.913704 5.14906 0 6.28432 0H31.9788Z" fill="#EBEBEB"/>
<path opacity="0.5" d="M31.9788 0L42.7704 11.3403H34.0343C32.8991 11.3403 31.9788 10.4266 31.9788 9.29949V0Z" fill="#808080"/>
<rect x="15.6614" y="21.1875" width="30.11" height="12" rx="2" fill="#1EBB77"/>
<path d="M41.5518 25.7422C41.5233 25.4557 41.4014 25.2332 41.186 25.0746C40.9706 24.916 40.6782 24.8367 40.3089 24.8367C40.0579 24.8367 39.846 24.8722 39.6732 24.9432C39.5004 25.0118 39.3678 25.1077 39.2755 25.2308C39.1855 25.3539 39.1405 25.4936 39.1405 25.6499C39.1358 25.7801 39.163 25.8937 39.2222 25.9908C39.2838 26.0878 39.3678 26.1719 39.4743 26.2429C39.5809 26.3116 39.704 26.3719 39.8437 26.424C39.9833 26.4737 40.1325 26.5163 40.2911 26.5519L40.9445 26.7081C41.2617 26.7791 41.5529 26.8738 41.8181 26.9922C42.0832 27.1106 42.3129 27.2562 42.507 27.429C42.7011 27.6018 42.8515 27.8054 42.958 28.0398C43.0669 28.2742 43.1225 28.5429 43.1249 28.8459C43.1225 29.291 43.0089 29.6769 42.784 30.0036C42.5615 30.3279 42.2395 30.58 41.8181 30.76C41.3991 30.9375 40.8936 31.0263 40.3018 31.0263C39.7146 31.0263 39.2033 30.9363 38.7677 30.7564C38.3344 30.5765 37.9959 30.3101 37.752 29.9574C37.5106 29.6023 37.3839 29.1631 37.3721 28.6399H38.86C38.8766 28.8838 38.9464 29.0874 39.0695 29.2507C39.195 29.4117 39.3619 29.5336 39.5702 29.6165C39.7809 29.697 40.0189 29.7372 40.284 29.7372C40.5444 29.7372 40.7705 29.6993 40.9623 29.6236C41.1564 29.5478 41.3067 29.4425 41.4133 29.3075C41.5198 29.1726 41.5731 29.0175 41.5731 28.8423C41.5731 28.679 41.5245 28.5417 41.4275 28.4304C41.3328 28.3191 41.1931 28.2244 41.0084 28.1463C40.8261 28.0682 40.6024 27.9972 40.3373 27.9332L39.5454 27.7344C38.9322 27.5852 38.4481 27.352 38.093 27.0348C37.7378 26.7176 37.5615 26.2903 37.5638 25.7529C37.5615 25.3125 37.6787 24.9278 37.9154 24.5987C38.1545 24.2697 38.4824 24.0128 38.8991 23.8281C39.3157 23.6435 39.7892 23.5511 40.3195 23.5511C40.8593 23.5511 41.3304 23.6435 41.7329 23.8281C42.1377 24.0128 42.4526 24.2697 42.6775 24.5987C42.9024 24.9278 43.0184 25.309 43.0255 25.7422H41.5518Z" fill="white"/>
<path d="M31.9326 30.9233V23.6506H33.4703V29.6556H36.5882V30.9233H31.9326Z" fill="white"/>
<path d="M26.2259 23.6506L27.6926 26.1293H27.7494L29.2231 23.6506H30.9596L28.7401 27.2869L31.0093 30.9233H29.2409L27.7494 28.4411H27.6926L26.2011 30.9233H24.4397L26.716 27.2869L24.4823 23.6506H26.2259Z" fill="white"/>
<path d="M18.6611 30.9233V23.6506H23.5617V24.9183H20.1988V26.6513H23.3096V27.919H20.1988V29.6556H23.5759V30.9233H18.6611Z" fill="white"/>
</svg>
