<svg width="20" height="20" viewBox="0 0 20 20" fill="none" xmlns="http://www.w3.org/2000/svg">
<g clip-path="url(#clip0_22_898)">
<path d="M17.231 7.96632C17.231 10.8403 13.4747 15.9495 11.3486 18.5798C11.185 18.7862 10.9768 18.953 10.7396 19.0677C10.5024 19.1823 10.2423 19.2419 9.9789 19.2419C9.71545 19.2419 9.45541 19.1823 9.21821 19.0677C8.98102 18.953 8.7728 18.7862 8.60915 18.5798C6.51671 15.9495 2.7688 10.8403 2.7688 7.96632C2.83266 6.09559 3.62071 4.32282 4.96668 3.02201C6.31265 1.72121 8.11128 0.99408 9.9831 0.99408C11.8549 0.99408 13.6536 1.72121 14.9995 3.02201C16.3455 4.32282 17.1336 6.09559 17.1974 7.96632H17.231Z" stroke="#252525" stroke-width="1.6" stroke-miterlimit="10"/>
<path d="M10.0209 10.8907C11.6314 10.8907 12.9369 9.58517 12.9369 7.97473C12.9369 6.36428 11.6314 5.05876 10.0209 5.05876C8.41048 5.05876 7.10496 6.36428 7.10496 7.97473C7.10496 9.58517 8.41048 10.8907 10.0209 10.8907Z" stroke="#252525" stroke-width="1.6" stroke-miterlimit="10"/>
</g>
<defs>
<clipPath id="clip0_22_898">
<rect width="20" height="20" fill="white"/>
</clipPath>
</defs>
</svg>
