<svg width="20" height="20" viewBox="0 0 20 20" fill="none" xmlns="http://www.w3.org/2000/svg">
<g clip-path="url(#clip0_7_142)">
<path d="M8.32132 11.6801L2.20039 9.84989C1.94121 9.7219 1.72475 9.52145 1.57725 9.27285C1.42975 9.02425 1.35754 8.73819 1.36943 8.44936C1.38131 8.16054 1.47675 7.88136 1.64417 7.64572C1.81159 7.41007 2.04381 7.22806 2.31263 7.12179L16.592 1.46704C16.8631 1.36051 17.1595 1.33559 17.4446 1.39535C17.7297 1.45512 17.9911 1.59694 18.1966 1.80338C18.4021 2.00982 18.5428 2.27186 18.6013 2.55723C18.6598 2.84261 18.6335 3.13887 18.5258 3.40952L12.871 17.6889C12.7665 17.9582 12.5856 18.1911 12.3506 18.3592C12.1156 18.5273 11.8367 18.6231 11.548 18.6351C11.2594 18.647 10.9735 18.5744 10.7255 18.4263C10.4774 18.2782 10.278 18.0609 10.1516 17.8011L8.32132 11.6801Z" stroke="#252525" stroke-width="1.6" stroke-miterlimit="10"/>
</g>
<defs>
<clipPath id="clip0_7_142">
<rect width="20" height="20" fill="white"/>
</clipPath>
</defs>
</svg>
