<svg width="30" height="20" viewBox="0 0 30 20" fill="none" xmlns="http://www.w3.org/2000/svg">
<path d="M12.4248 9.44369C12.4248 9.11376 12.4898 8.78707 12.6161 8.48226C12.7423 8.17744 12.9274 7.90048 13.1607 7.66718C13.394 7.43389 13.671 7.24883 13.9758 7.12257C14.2806 6.99631 14.6073 6.93133 14.9372 6.93133C15.6028 6.93369 16.2405 7.19915 16.7112 7.6698C17.1818 8.14045 17.4472 8.77809 17.4496 9.44369M26.521 8.1875L29.5 7.0031M0.5 7.0031L3.47896 8.1875M19.8811 10C19.8811 9.44317 20.1023 8.90912 20.496 8.51536C20.8898 8.1216 21.4238 7.9004 21.9807 7.9004M5.75792 10C5.75792 9.44317 5.97913 8.90912 6.37288 8.51536C6.76664 8.1216 7.30069 7.9004 7.85755 7.9004M12.4337 10C12.4337 12.5075 10.401 14.5402 7.8935 14.5402C5.38601 14.5402 3.35328 12.5075 3.35328 10C3.35328 7.4925 5.38601 5.45978 7.8935 5.45978C10.401 5.45978 12.4337 7.4925 12.4337 10ZM26.5209 10C26.5209 12.5075 24.4882 14.5402 21.9807 14.5402C19.4732 14.5402 17.4405 12.5075 17.4405 10C17.4405 7.4925 19.4732 5.45978 21.9807 5.45978C24.4882 5.45978 26.5209 7.4925 26.5209 10Z" stroke="#252525" stroke-width="1.6" stroke-miterlimit="10"/>
</svg>
