<svg width="60" height="60" viewBox="0 0 60 60" fill="none" xmlns="http://www.w3.org/2000/svg">
<path d="M56.417 19.9033C56.1807 16.811 53.8164 12.8468 51.4522 10.944C48.7935 8.99667 46.031 7.19689 43.1772 5.55269C40.3452 3.86383 37.425 2.32881 34.4297 0.954197C32.8295 0.297539 31.1138 -0.0261259 29.386 0.00278046C27.6574 -0.0337584 25.9402 0.290173 24.3423 0.954197C21.3472 2.32978 18.4272 3.86478 15.5945 5.55269C11.0236 8.32763 7.31963 10.944 7.31963 10.944C5.35128 12.6013 3.86603 14.7401 2.99198 17.133C2.83557 17.5612 3.16287 18 3.61868 18H7.40046C7.90674 18 8.36593 17.716 8.6318 17.2852C9.30489 16.1944 10.1533 15.2096 11.1526 14.3741C11.1526 14.3741 14.2109 12.2287 17.985 9.9532C20.3239 8.56913 22.7348 7.31043 25.2078 6.18245C26.5271 5.63796 27.945 5.37232 29.3722 5.40229C30.7988 5.3786 32.2156 5.64399 33.5368 6.18245C36.01 7.30963 38.4211 8.56836 40.7595 9.9532C43.1159 11.3015 45.3967 12.7773 47.5919 14.3741C49.5439 15.9344 51.4961 19.1851 51.6914 21.7205C51.6914 21.7205 52.1469 25.4914 52.2119 29.9577C52.208 32.7161 52.0558 35.4723 51.7563 38.2144C51.3023 41.0856 49.823 43.6952 47.5919 45.5609C47.5919 45.5609 44.5336 47.7714 40.7595 50.0469C38.4206 51.4309 36.0095 52.6896 33.5368 53.8175C32.2173 54.362 30.7993 54.6278 29.3722 54.5977C27.947 54.6275 26.5302 54.3688 25.2078 53.8372C22.7346 52.71 20.3235 51.4512 17.985 50.0662C14.2109 47.856 11.1526 45.5803 11.1526 45.5803C10.2818 44.8844 9.41097 43.852 8.69034 42.6967C8.42682 42.2743 7.97284 42.0001 7.47492 42.0001H3.63465C3.17302 42.0001 2.84596 42.4488 3.01635 42.8779C3.96144 45.258 5.64053 47.6491 7.31963 49.0004C7.31963 49.0004 11.0236 51.7754 15.5945 54.471C18.4267 56.1598 21.3467 57.6951 24.3423 59.0696C25.9439 59.718 27.6596 60.0337 29.386 59.9972C31.1143 60.0337 32.8317 59.7098 34.4297 59.0459C37.4245 57.6701 40.3445 56.1351 43.1772 54.4473C47.7482 51.6724 51.4522 48.9766 51.4522 48.9766C54.1544 46.7017 55.9459 43.519 56.496 40.0176C56.8585 36.6736 57.0426 33.3124 57.0474 29.9485C56.9687 24.5016 56.417 19.9033 56.417 19.9033Z" fill="url(#paint0_linear_105_7310)"/>
<path fill-rule="evenodd" clip-rule="evenodd" d="M19.8764 26.3326C19.8685 26.3121 19.8528 26.2947 19.8323 26.2852C19.8119 26.2758 19.7883 26.2758 19.7677 26.2821C19.4023 26.4179 18.7965 26.5284 18.3192 26.5284C17.2747 26.5284 16.777 26.2458 16.777 24.6401C16.777 23.3565 16.9298 22.7519 18.3192 22.7519C18.7129 22.7519 19.1896 22.8087 19.6543 22.9445C19.692 22.9555 19.733 22.9382 19.7503 22.9034C19.8792 22.619 20.0664 22.159 20.2043 21.8205C20.2234 21.7737 20.2414 21.7291 20.2582 21.6878C20.2693 21.6657 20.2693 21.6404 20.2599 21.6183C20.2504 21.5962 20.2315 21.5788 20.2078 21.5709C19.5966 21.3752 18.8673 21.2615 18.2105 21.2615C16.0225 21.2615 15.0473 22.2956 15.0473 24.6164C15.0473 26.9704 16.0225 28.0203 18.2105 28.0203C18.7586 28.0203 19.8393 27.9051 20.3607 27.6967C20.4016 27.6793 20.4237 27.632 20.408 27.5909L19.8764 26.3326ZM2.95239 21.5171C2.95239 21.4729 2.98794 21.4372 3.03177 21.4372H7.52521C7.58132 21.4372 7.6193 21.4954 7.59749 21.5479L7.04104 22.8904C7.02634 22.9258 6.99273 22.9419 6.96082 22.9387C6.95819 22.939 6.95555 22.9392 6.95287 22.9392H4.63513V27.7646C4.63513 27.8087 4.5996 27.8445 4.55575 27.8445H3.03177C2.98794 27.8445 2.95239 27.8087 2.95239 27.7646V21.5171ZM7.97411 24.6162C7.97411 22.2019 8.80703 21.2615 10.9461 21.2615C13.1023 21.2615 13.9431 22.2019 13.9431 24.6162C13.9431 27.0671 13.1023 28.0203 10.9461 28.0203C8.80703 28.0203 7.97411 27.0671 7.97411 24.6162ZM9.66796 24.6401C9.66796 26.3422 9.97154 26.6136 10.9461 26.6136C11.9394 26.6136 12.2491 26.3422 12.2491 24.6401C12.2491 22.8278 11.9115 22.6666 10.9461 22.6666C9.99957 22.6666 9.66796 22.8278 9.66796 24.6401Z" fill="#0066B3"/>
<path fill-rule="evenodd" clip-rule="evenodd" d="M14.5709 35.698C14.5631 35.6775 14.5473 35.6601 14.5269 35.6507C14.5065 35.6412 14.4829 35.6412 14.4622 35.6475C14.0968 35.7833 13.491 35.8938 13.0138 35.8938C11.9693 35.8938 11.4714 35.6112 11.4714 34.0055C11.4714 32.722 11.6243 32.1173 13.0138 32.1173C13.4075 32.1173 13.8842 32.1741 14.3487 32.3099C14.3865 32.3209 14.4276 32.3036 14.4448 32.2688C14.5737 31.9844 14.7609 31.5244 14.8988 31.1859C14.9178 31.1391 14.9359 31.0946 14.9528 31.0532C14.9639 31.0311 14.9639 31.0058 14.9543 30.9837C14.9449 30.9616 14.926 30.9442 14.9024 30.9363C14.2912 30.7406 13.5619 30.6269 12.9049 30.6269C10.717 30.6269 9.74187 31.661 9.74187 33.9818C9.74187 36.3358 10.717 37.3857 12.9049 37.3857C13.4532 37.3857 14.5338 37.2705 15.0551 37.0621C15.0962 37.0447 15.1183 36.9974 15.1025 36.9563L14.5709 35.698ZM3.03169 30.8026C2.9766 30.8026 2.93837 30.8571 2.95729 30.9086L5.27279 37.2109C4.94599 37.9024 4.58284 38.6302 4.16779 39.4414C4.14062 39.4945 4.17847 39.5588 4.23787 39.5588H5.88515C5.91514 39.5588 5.94268 39.5415 5.95617 39.5147C7.1751 37.0182 8.07192 34.8052 9.29834 30.9082C9.31502 30.8566 9.27716 30.8026 9.2232 30.8026H7.69321C7.65761 30.8026 7.62632 30.8269 7.61657 30.8612C7.14456 32.5272 6.70926 33.8313 6.20464 35.088L4.64918 30.8544C4.63775 30.8233 4.60795 30.8026 4.57479 30.8026H3.03169ZM15.9042 37.2099H17.4692C17.5025 37.2099 17.5342 37.1875 17.5438 37.1556C17.7847 36.3934 17.9989 35.5354 18.1795 34.5895C18.3351 33.7819 18.4299 33.0167 18.4861 32.3046H20.0159V37.13C20.0159 37.1742 20.0515 37.2099 20.0953 37.2099H21.6193C21.6632 37.2099 21.6988 37.1742 21.6988 37.13V30.8825C21.6988 30.8384 21.6632 30.8026 21.6193 30.8026H16.9681C16.9254 30.8026 16.8905 30.8361 16.8888 30.8793C16.8461 31.8364 16.7446 32.9085 16.5512 34.0718C16.3625 35.1966 16.0897 36.2113 15.8281 37.1076C15.8138 37.1588 15.8519 37.2099 15.9042 37.2099ZM30.0866 30.8026C30.0428 30.8026 30.0072 30.8384 30.0072 30.8825V37.13C30.0072 37.1742 30.0428 37.2099 30.0866 37.2099H31.6106C31.6544 37.2099 31.6899 37.1742 31.6899 37.13V32.3046H34.0076C34.0104 32.3046 34.013 32.3044 34.0157 32.3042C34.0475 32.3073 34.0811 32.2912 34.0959 32.2558L34.6522 30.9133C34.6741 30.8608 34.6361 30.8026 34.5801 30.8026H30.0866ZM22.6556 30.9086C22.6366 30.8571 22.6749 30.8026 22.73 30.8026H24.2731C24.3062 30.8026 24.336 30.8233 24.3474 30.8544L25.9029 35.088C26.4075 33.8313 26.8428 32.5272 27.3148 30.8612C27.3246 30.8269 27.3559 30.8026 27.3915 30.8026H28.9215C28.9754 30.8026 29.0133 30.8566 28.9966 30.9082C27.7702 34.8052 26.8734 37.0182 25.6544 39.5147C25.6409 39.5415 25.6134 39.5588 25.5834 39.5588H23.9361C23.8767 39.5588 23.8389 39.4945 23.8661 39.4414C24.2813 38.6302 24.6443 37.9024 24.9711 37.2109L22.6556 30.9086ZM39.4366 30.8026H40.9597C41.0043 30.8026 41.0392 30.8377 41.0375 30.8823V30.8919V36.7639C41.0375 36.799 41.0169 36.8308 40.9835 36.842C40.2776 37.113 39.0876 37.3857 38.0215 37.3857C36.1953 37.3857 35.4559 36.5821 35.4195 34.5302C35.4179 34.5254 35.4178 30.8919 35.4178 30.8919V30.8823C35.4178 30.8377 35.4527 30.8026 35.4973 30.8026H37.0203C37.0648 30.8026 37.0996 30.8377 37.0996 30.8823V34.4951C37.1346 35.5856 37.4026 35.8471 38.326 35.8471C38.6974 35.8471 39.0274 35.8025 39.3574 35.71V30.8823C39.3574 30.8377 39.3922 30.8026 39.4366 30.8026Z" fill="#EE2F53"/>
<defs>
<linearGradient id="paint0_linear_105_7310" x1="29.8747" y1="-5.98486e-06" x2="29.8747" y2="60.0001" gradientUnits="userSpaceOnUse">
<stop stop-color="#0066B3"/>
<stop offset="0.354167" stop-color="#0066B3"/>
<stop offset="0.6875" stop-color="#EE2F53"/>
<stop offset="1" stop-color="#EE2F53"/>
</linearGradient>
</defs>
</svg>
