<svg width="18" height="18" viewBox="0 0 18 18" fill="none" xmlns="http://www.w3.org/2000/svg">
<path d="M9.00052 9.11095C11.5115 9.11095 13.5466 7.07544 13.5466 4.56405C13.5465 2.05267 11.5114 0.0175781 9.00052 0.0175781C6.48868 0.0175781 4.45274 2.05267 4.45274 4.56405C4.45271 7.07544 6.48868 9.11095 9.00052 9.11095ZM9.00052 2.3272C10.2356 2.3272 11.2369 3.32852 11.2369 4.56402C11.2369 5.79955 10.2356 6.80084 9.00052 6.80084C7.76414 6.80084 6.76325 5.79955 6.76325 4.56402C6.76325 3.32852 7.76411 2.3272 9.00052 2.3272ZM14.2408 9.66579C13.9847 9.15001 13.2737 8.72107 12.3285 9.46536C11.0509 10.4715 9.00048 10.4715 9.00048 10.4715C9.00048 10.4715 6.94873 10.4715 5.67112 9.46536C4.72636 8.72107 4.01586 9.15001 3.75929 9.66579C3.31104 10.5645 3.81673 10.9991 4.95797 11.7316C5.93254 12.3575 7.27199 12.5912 8.13648 12.6785L7.41455 13.4005C6.3979 14.4167 5.41676 15.3987 4.73561 16.0798C4.32815 16.4868 4.32815 17.147 4.73561 17.554L4.85795 17.6772C5.26541 18.0842 5.92509 18.0842 6.33251 17.6772L9.01145 14.9978C10.029 16.0145 11.0101 16.9961 11.6912 17.6772C12.0987 18.0842 12.7584 18.0842 13.1658 17.6772L13.2881 17.554C13.6956 17.1465 13.6956 16.4868 13.2881 16.0794L10.6092 13.4005L9.88554 12.6764C10.7509 12.5869 12.0754 12.3522 13.0421 11.7316C14.1834 10.9991 14.6882 10.5645 14.2408 9.66579Z" fill="#476BF0"/>
</svg>
