<svg width="50" height="50" viewBox="0 0 50 50" fill="none" xmlns="http://www.w3.org/2000/svg">
<path d="M31.9771 0L42.7687 11.3403V47.9592C42.7687 49.0863 41.8484 50 40.7132 50H6.28261C5.14735 50 4.22705 49.0863 4.22705 47.9592V2.04082C4.22705 0.913704 5.14735 0 6.28261 0H31.9771Z" fill="#EBEBEB"/>
<path opacity="0.5" d="M31.9771 0L42.7687 11.3403H34.0326C32.8974 11.3403 31.9771 10.4266 31.9771 9.29949V0Z" fill="#808080"/>
<rect x="21.2031" y="21.1875" width="24.57" height="12" rx="2" fill="#EE2F53"/>
<path d="M37.9531 30.8239V23.5511H42.7685V24.8189H39.4908V26.5519H42.4489V27.8196H39.4908V30.8239H37.9531Z" fill="white"/>
<path d="M33.2559 30.8239H30.6777V23.5511H33.2772C34.0087 23.5511 34.6384 23.6967 35.1664 23.9879C35.6943 24.2768 36.1003 24.6922 36.3844 25.2344C36.6709 25.7765 36.8141 26.4252 36.8141 27.1804C36.8141 27.938 36.6709 28.589 36.3844 29.1335C36.1003 29.678 35.6919 30.0959 35.1593 30.3871C34.629 30.6783 33.9945 30.8239 33.2559 30.8239ZM32.2154 29.5064H33.1919C33.6465 29.5064 34.0288 29.4259 34.339 29.2649C34.6515 29.1016 34.8858 28.8494 35.0421 28.5085C35.2007 28.1653 35.28 27.7225 35.28 27.1804C35.28 26.643 35.2007 26.2038 35.0421 25.8629C34.8858 25.522 34.6526 25.2711 34.3425 25.1101C34.0324 24.9491 33.65 24.8686 33.1955 24.8686H32.2154V29.5064Z" fill="white"/>
<path d="M24.2031 30.8239V23.5511H27.0724C27.6241 23.5511 28.094 23.6565 28.4822 23.8672C28.8705 24.0755 29.1664 24.3655 29.37 24.7372C29.576 25.1065 29.679 25.5327 29.679 26.0156C29.679 26.4986 29.5748 26.9247 29.3665 27.294C29.1581 27.6634 28.8563 27.951 28.4609 28.157C28.0679 28.3629 27.5921 28.4659 27.0334 28.4659H25.2045V27.2337H26.7848C27.0807 27.2337 27.3246 27.1828 27.5163 27.081C27.7105 26.9768 27.8549 26.8336 27.9496 26.6513C28.0466 26.4666 28.0952 26.2547 28.0952 26.0156C28.0952 25.7742 28.0466 25.5635 27.9496 25.3835C27.8549 25.2012 27.7105 25.0604 27.5163 24.9609C27.3222 24.8591 27.076 24.8082 26.7777 24.8082H25.7408V30.8239H24.2031Z" fill="white"/>
</svg>
