<svg width="20" height="20" viewBox="0 0 20 20" fill="none" xmlns="http://www.w3.org/2000/svg">
<g clip-path="url(#clip0_7_102)">
<path d="M18.5092 14C18.5092 14 14.8728 11.3637 13.8637 11.5455C13.391 11.6273 13.1183 11.9546 12.5728 12.6C12.491 12.7 12.2819 12.9546 12.1183 13.1273C11.7757 13.0184 11.4414 12.8847 11.1183 12.7273C9.44788 11.9115 8.09774 10.5613 7.28192 8.89094C7.12447 8.56776 6.99078 8.23354 6.88191 7.89093C7.05464 7.72729 7.3092 7.51822 7.4092 7.42731C8.05466 6.89095 8.3819 6.61822 8.46372 6.14549C8.63645 5.16367 6.03644 1.52729 6.00917 1.50002C5.89153 1.33037 5.7374 1.18924 5.55806 1.08698C5.37872 0.984723 5.1787 0.92394 4.97279 0.909119C3.91824 0.909119 0.90918 4.80912 0.90918 5.45457C0.90918 5.45457 0.963741 9.38186 5.75465 14.2455C10.5456 19.1091 14.5001 19.0818 14.5364 19.0818C15.191 19.0818 19.0819 16.0727 19.0819 15.0182C19.0668 14.8146 19.0068 14.6169 18.9062 14.4393C18.8056 14.2617 18.6669 14.1085 18.5001 13.9909L18.5092 14Z" stroke="#252525" stroke-width="1.6" stroke-miterlimit="10"/>
</g>
<defs>
<clipPath id="clip0_7_102">
<rect width="20" height="20" fill="white"/>
</clipPath>
</defs>
</svg>
