<svg width="18" height="18" viewBox="0 0 18 18" fill="none" xmlns="http://www.w3.org/2000/svg">
<path d="M11.1345 3.44993H0V15.0674H3.10153V11.3174H9.00218L11.716 15.0674H15.2052L12.22 11.2724C12.9954 11.2094 13.714 10.8538 14.2205 10.2824C14.6878 9.53991 14.9021 8.67413 14.8331 7.80743V6.93743C14.8486 6.40065 14.7807 5.86466 14.6314 5.34743C14.501 4.94791 14.2721 4.58501 13.9646 4.28993C13.6378 3.99331 13.2453 3.77271 12.8171 3.64493C12.2684 3.50417 11.702 3.43853 11.1345 3.44993ZM10.6305 8.69993H3.10153V5.98492H10.6305C10.9357 5.95675 11.2422 6.02236 11.5067 6.17242C11.5948 6.26296 11.6619 6.37073 11.7034 6.48846C11.7448 6.6062 11.7597 6.73116 11.747 6.85493V7.82993C11.76 7.95601 11.7453 8.0833 11.7038 8.2035C11.6624 8.32369 11.5952 8.43407 11.5067 8.52742C11.2436 8.68176 10.9372 8.75257 10.6305 8.72993V8.69993Z" fill="#476BF0"/>
<path d="M16.5975 4.44738C16.9699 4.44605 17.3266 4.302 17.5895 4.04679C17.8524 3.79157 18 3.44599 18 3.08573C18.0007 2.90691 17.9649 2.72972 17.8948 2.56426C17.8247 2.39881 17.7216 2.24833 17.5913 2.12143C17.4611 1.99452 17.3063 1.89367 17.1358 1.82463C16.9652 1.75559 16.7823 1.71971 16.5975 1.71906C16.4121 1.71905 16.2287 1.75444 16.0575 1.82319C15.8864 1.89193 15.731 1.99267 15.6002 2.11965C15.4694 2.24662 15.3658 2.39732 15.2954 2.5631C15.2249 2.72889 15.189 2.90649 15.1897 3.08573C15.1897 3.44686 15.338 3.7932 15.602 4.04856C15.866 4.30392 16.2241 4.44738 16.5975 4.44738Z" fill="#476BF0"/>
</svg>
