<svg width="20" height="20" viewBox="0 0 20 20" fill="none" xmlns="http://www.w3.org/2000/svg">
<g clip-path="url(#clip0_7_88)">
<path d="M19.0455 19.05L14.3273 14.3318M16.9182 8.93181C16.9182 10.5105 16.4501 12.0537 15.573 13.3663C14.696 14.6789 13.4494 15.7019 11.9909 16.3061C10.5324 16.9102 8.92756 17.0682 7.37924 16.7603C5.83092 16.4523 4.40869 15.6921 3.29241 14.5758C2.17613 13.4595 1.41594 12.0373 1.10796 10.489C0.799981 8.94067 0.958049 7.3358 1.56217 5.87731C2.1663 4.41882 3.18936 3.17224 4.50196 2.29518C5.81456 1.41813 7.35776 0.949998 8.93641 0.949998C9.98689 0.946408 11.0277 1.15021 11.9993 1.54972C12.9708 1.94924 13.854 2.53662 14.598 3.27816C15.3421 4.01969 15.9325 4.9008 16.3353 5.87098C16.7381 6.84117 16.9455 7.88133 16.9455 8.93181H16.9182Z" stroke="#252525" stroke-width="1.6" stroke-miterlimit="10"/>
</g>
<defs>
<clipPath id="clip0_7_88">
<rect width="20" height="20" fill="white"/>
</clipPath>
</defs>
</svg>
