<svg width="20" height="20" viewBox="0 0 20 20" fill="none" xmlns="http://www.w3.org/2000/svg">
<g clip-path="url(#clip0_7_96)">
<path d="M19.346 15.965L13.7541 10.3731C14.2646 9.21766 14.439 7.94165 14.2571 6.6916C14.0752 5.44156 13.5445 4.26817 12.7258 3.30616C11.9071 2.34415 10.8337 1.63253 9.62885 1.25304C8.424 0.873539 7.13656 0.841555 5.91434 1.16074C5.80363 1.19274 5.70317 1.25302 5.62286 1.33566C5.54254 1.41831 5.48514 1.52046 5.45631 1.63204C5.42749 1.74362 5.42826 1.86079 5.4585 1.97199C5.48874 2.0832 5.5474 2.18459 5.62876 2.2662L8.13455 4.77196L8.2727 7.01978C8.28351 7.18953 8.25804 7.35965 8.19797 7.5188C8.13791 7.67794 8.04465 7.82245 7.92437 7.94273C7.80409 8.06301 7.65955 8.15629 7.50041 8.21636C7.34127 8.27642 7.17115 8.3019 7.00139 8.29108L4.75358 8.15291L2.24785 5.63793C2.16623 5.55657 2.06481 5.49788 1.95361 5.46764C1.8424 5.4374 1.72523 5.43665 1.61365 5.46547C1.50207 5.4943 1.39992 5.5517 1.31728 5.63202C1.23463 5.71234 1.17435 5.81279 1.14235 5.92351C0.818648 7.14695 0.84722 8.43696 1.22478 9.64488C1.60235 10.8528 2.31352 11.9294 3.27636 12.7508C4.23921 13.5721 5.41456 14.1046 6.66689 14.287C7.91923 14.4694 9.19759 14.2942 10.3547 13.7816L15.8821 19.3643" stroke="#252525" stroke-width="1.6" stroke-miterlimit="10"/>
</g>
<defs>
<clipPath id="clip0_7_96">
<rect width="20" height="20" fill="white"/>
</clipPath>
</defs>
</svg>
