<svg width="60" height="60" viewBox="0 0 60 60" fill="none" xmlns="http://www.w3.org/2000/svg">
<g clip-path="url(#clip0_105_7110)">
<path d="M6.92056 44.9726L1.3944 48.6686C1.29742 48.7291 1.21385 48.8087 1.14882 48.9027C1.08379 48.9966 1.03867 49.1029 1.01626 49.215C0.993848 49.327 0.994613 49.4425 1.0185 49.5542C1.04239 49.666 1.0889 49.7717 1.15517 49.8648C1.22679 49.9829 1.33049 50.0783 1.45421 50.1399L6.23876 52.7475V57.9865C6.23876 58.0981 6.26072 58.2085 6.3034 58.3115C6.34608 58.4146 6.40865 58.5082 6.48751 58.5871C6.56637 58.6659 6.65998 58.7285 6.76302 58.7711C6.86605 58.8138 6.9765 58.8358 7.08802 58.8358C7.23935 58.8329 7.38749 58.7917 7.51863 58.7162L16.9442 53.1541C17.1258 53.0443 17.2597 52.8703 17.3195 52.6667C17.3793 52.463 17.3606 52.2443 17.2671 52.0537L16.1428 49.6614M42.7329 52.0537C42.6405 52.2457 42.6237 52.4654 42.6857 52.6692C42.7478 52.8731 42.8841 53.0462 43.0678 53.1541L52.4815 58.7162C52.611 58.7896 52.7572 58.8281 52.9061 58.8281C53.0549 58.8281 53.2012 58.7896 53.3307 58.7162C53.4618 58.6419 53.5708 58.534 53.6465 58.4037C53.7222 58.2734 53.7618 58.1253 53.7613 57.9746V52.7355L58.5459 50.1279C58.6481 50.0731 58.7382 49.9982 58.8108 49.9076C58.8833 49.8171 58.9368 49.7129 58.9681 49.6012C58.9994 49.4895 59.0078 49.3726 58.9928 49.2576C58.9778 49.1425 58.9397 49.0317 58.8808 48.9318C58.8118 48.8133 58.718 48.7113 58.6057 48.6327L53.0795 44.9367" stroke="#252525" stroke-miterlimit="10"/>
<path d="M11.717 52.4485L16.3222 53.238C16.4743 53.263 16.6304 53.2462 16.7737 53.1893C16.917 53.1324 17.0421 53.0376 17.1355 52.915C17.2299 52.7896 17.2877 52.6405 17.3025 52.4843C17.3173 52.328 17.2885 52.1707 17.2193 52.0299L16.1786 49.8409M43.9649 49.3625L42.7449 52.0299C42.696 52.1304 42.6674 52.2395 42.6608 52.3511C42.6542 52.4626 42.6697 52.5744 42.7063 52.68C42.743 52.7855 42.8002 52.8828 42.8745 52.9663C42.9489 53.0497 43.0389 53.1176 43.1396 53.1662C43.3008 53.2383 43.4791 53.2632 43.6539 53.238L48.4385 52.4366" stroke="#252525" stroke-miterlimit="10"/>
<path d="M13.4991 38.4178C13.4008 38.2176 13.2287 38.0634 13.019 37.9876C12.8093 37.9117 12.5783 37.9202 12.3747 38.0111C10.1367 38.9829 8.10633 40.3758 6.39401 42.1139C6.28526 42.2434 6.21706 42.4021 6.19792 42.5701C6.17877 42.7382 6.20954 42.9082 6.28637 43.0588L10.9632 51.994C11.0364 52.1305 11.145 52.2448 11.2776 52.3248C11.4102 52.4048 11.562 52.4475 11.7168 52.4485C11.8363 52.4453 11.9539 52.4183 12.0628 52.369C12.1716 52.3197 12.2696 52.2491 12.3508 52.1614C12.8179 51.6727 13.3397 51.2393 13.9058 50.8696C15.4884 49.817 17.2066 48.9841 19.0133 48.3936C19.2249 48.3225 19.4 48.171 19.5008 47.9718C19.6015 47.7725 19.6197 47.5416 19.5515 47.3291C19.5094 47.2135 19.4443 47.1077 19.3601 47.018C16.9851 44.4624 15.0091 41.563 13.4991 38.4178Z" stroke="#252525" stroke-miterlimit="10"/>
<path d="M47.5294 38.0111C47.3258 37.9202 47.0948 37.9117 46.8851 37.9876C46.6754 38.0634 46.5033 38.2176 46.405 38.4178C44.904 41.5654 42.9317 44.4655 40.5559 47.018C40.3981 47.1771 40.3096 47.3921 40.3096 47.6161C40.3096 47.8402 40.3981 48.0551 40.5559 48.2142C40.6493 48.2967 40.7595 48.3579 40.8788 48.3936C42.682 48.9835 44.3963 49.8165 45.9744 50.8696C46.5378 51.2383 47.0592 51.6675 47.5294 52.1495C47.6016 52.2348 47.6902 52.3047 47.7898 52.3552C47.8895 52.4057 47.9983 52.4357 48.1098 52.4435C48.2212 52.4513 48.3332 52.4368 48.4389 52.4006C48.5447 52.3645 48.6421 52.3076 48.7255 52.2332C48.8027 52.1652 48.8675 52.0842 48.9169 51.994L53.5938 43.0588C53.6738 42.909 53.7064 42.7384 53.6871 42.5696C53.6679 42.4008 53.5978 42.2419 53.4861 42.1139" stroke="#252525" stroke-miterlimit="10"/>
<path d="M18.3313 48.3936L18.7619 48.8242C21.8633 51.9155 25.5687 54.3342 29.6468 55.9292C29.7452 55.9707 29.8509 55.992 29.9578 55.992C30.0646 55.992 30.1703 55.9707 30.2688 55.9292C34.4561 54.2862 38.2505 51.7797 41.4048 48.573" stroke="#252525" stroke-width="1.6" stroke-miterlimit="10"/>
<path d="M48.2951 38.3938C49.6241 35.4628 50.654 32.4051 51.3691 29.2673C52.7947 23.1364 53.2827 16.8249 52.8165 10.5477C52.7979 10.3542 52.7125 10.1731 52.575 10.0356C52.4375 9.89808 52.2564 9.81273 52.0629 9.79417C46.5944 9.19995 41.2824 7.6023 36.3935 5.08138C34.3086 4.04132 32.3331 2.7951 30.4965 1.36139C30.3438 1.23391 30.1512 1.16409 29.9523 1.16409C29.7533 1.16409 29.5607 1.23391 29.408 1.36139C23.1213 6.05942 15.6827 8.97287 7.87755 9.79417C7.68265 9.81231 7.5 9.89723 7.3605 10.0345C7.221 10.1719 7.13323 10.3532 7.11202 10.5477C6.64578 16.8249 7.13375 23.1364 8.55934 29.2673C9.24315 32.2413 10.2043 35.1447 11.4301 37.9393" stroke="#252525" stroke-width="1.6" stroke-miterlimit="10"/>
<path d="M47.5291 14.8179C47.5058 14.6242 47.4173 14.4441 47.2782 14.3072C47.1392 14.1703 46.9577 14.0847 46.7636 14.0644C40.854 13.4403 35.2199 11.2428 30.4483 7.70093C30.2956 7.57345 30.103 7.50363 29.904 7.50363C29.7051 7.50363 29.5125 7.57345 29.3598 7.70093C24.5945 11.2542 18.9572 13.453 13.0445 14.0644C12.8517 14.0851 12.6719 14.1712 12.5348 14.3083C12.3977 14.4453 12.3116 14.6252 12.2909 14.8179C11.9317 19.6306 12.3027 24.4699 13.3914 29.1716C14.2998 33.3178 15.9929 37.252 18.3793 40.7622C21.154 44.7671 25.0605 47.8532 29.599 49.6256C29.6975 49.667 29.8032 49.6884 29.91 49.6884C30.0168 49.6884 30.1226 49.667 30.221 49.6256C34.7577 47.85 38.6634 44.7646 41.4408 40.7622C43.8279 37.2538 45.5173 33.3187 46.4167 29.1716C47.505 24.4699 47.88 19.6312 47.5291 14.8179Z" stroke="#252525" stroke-miterlimit="10"/>
<path d="M27.5064 35.858C27.2064 35.8585 26.9092 35.7996 26.6321 35.6846C26.3549 35.5696 26.1033 35.4009 25.8917 35.1882L20.7004 29.997C20.2753 29.567 20.0369 28.9868 20.0369 28.3822C20.0369 27.7776 20.2753 27.1973 20.7004 26.7674C21.1304 26.3423 21.7106 26.1039 22.3152 26.1039C22.9198 26.1039 23.5001 26.3423 23.93 26.7674L27.5184 30.3558L36.2741 21.6001C36.4855 21.3867 36.737 21.2173 37.0141 21.1017C37.2913 20.9861 37.5886 20.9266 37.8889 20.9266C38.1892 20.9266 38.4866 20.9861 38.7637 21.1017C39.0409 21.2173 39.2924 21.3867 39.5037 21.6001C39.9281 22.028 40.1662 22.6062 40.1662 23.2089C40.1662 23.8116 39.9281 24.3898 39.5037 24.8177L29.1332 35.2002C28.7043 35.6276 28.1239 35.8683 27.5184 35.87L27.5064 35.858Z" stroke="#252525" stroke-width="1.6" stroke-miterlimit="10"/>
</g>
<defs>
<clipPath id="clip0_105_7110">
<rect width="60" height="60" fill="white"/>
</clipPath>
</defs>
</svg>
