<svg width="20" height="20" viewBox="0 0 20 20" fill="none" xmlns="http://www.w3.org/2000/svg">
<g clip-path="url(#clip0_22_883)">
<path d="M12.8406 2.81794L17.1503 7.12762M6.10732 18.1614L1.23271 19.0726C1.18905 19.0807 1.14406 19.0781 1.10164 19.065C1.05921 19.0519 1.02065 19.0286 0.989246 18.9972C0.957841 18.9658 0.93454 18.9272 0.9214 18.8848C0.908261 18.8423 0.905679 18.7973 0.913837 18.7537L1.82497 13.87L14.1891 1.5059C14.575 1.13189 15.0912 0.922762 15.6286 0.922792C16.1634 0.922236 16.6771 1.13161 17.0591 1.5059L18.4987 2.94551C18.6872 3.13476 18.8365 3.35932 18.9382 3.60634C19.0398 3.85336 19.0917 4.11799 19.091 4.38509C19.0915 4.65081 19.0395 4.91402 18.9378 5.15954C18.8362 5.40505 18.6869 5.62801 18.4987 5.81558L6.10732 18.1614Z" stroke="#252525" stroke-width="1.6" stroke-miterlimit="10"/>
</g>
<defs>
<clipPath id="clip0_22_883">
<rect width="20" height="20" fill="white"/>
</clipPath>
</defs>
</svg>
