<svg width="18" height="14" viewBox="0 0 18 14" fill="none" xmlns="http://www.w3.org/2000/svg">
<path fill-rule="evenodd" clip-rule="evenodd" d="M17.6203 2.66723C17.4118 1.89282 16.8069 1.28791 16.0325 1.07946C14.6311 0.700195 9 0.700195 9 0.700195C9 0.700195 3.36887 0.700195 1.96752 1.07946C1.19311 1.28791 0.588196 1.89282 0.379749 2.66723C0.118085 4.0964 -0.00889312 5.54696 0.000483682 6.99985C-0.00889312 8.45275 0.118085 9.90331 0.379749 11.3325C0.588196 12.1069 1.19311 12.7118 1.96752 12.9202C3.36887 13.2995 9 13.2995 9 13.2995C9 13.2995 14.6311 13.2995 16.0325 12.9202C16.8069 12.7118 17.4118 12.1069 17.6203 11.3325C17.8819 9.90331 18.0089 8.45275 17.9995 6.99985C18.0089 5.54696 17.8819 4.0964 17.6203 2.66723ZM7.20064 9.69955V4.29984L11.874 6.99969L7.20064 9.69955Z" fill="#476BF0"/>
</svg>
